<svg id="visual" viewBox="0 0 2000 800" width="2000" height="800" xmlns="http://www.w3.org/2000/svg" xmlns:xlink="http://www.w3.org/1999/xlink" version="1.1"><rect x="0" y="0" width="2000" height="800" fill="#3A3A41"></rect><path d="M931 800L937 773.3C943 746.7 955 693.3 977 640C999 586.7 1031 533.3 1048.8 480C1066.7 426.7 1070.3 373.3 1062 320C1053.7 266.7 1033.3 213.3 1019.7 160C1006 106.7 999 53.3 995.5 26.7L992 0L2000 0L2000 26.7C2000 53.3 2000 106.7 2000 160C2000 213.3 2000 266.7 2000 320C2000 373.3 2000 426.7 2000 480C2000 533.3 2000 586.7 2000 640C2000 693.3 2000 746.7 2000 773.3L2000 800Z" fill="#303036" stroke-linecap="round" stroke-linejoin="miter"></path></svg>