<svg id="visual" viewBox="0 0 2000 1500" width="2000" height="1500" xmlns="http://www.w3.org/2000/svg" xmlns:xlink="http://www.w3.org/1999/xlink" version="1.1"><rect x="0" y="0" width="2000" height="1500" fill="#27272b"></rect><defs><linearGradient id="grad1_0" x1="25%" y1="0%" x2="100%" y2="100%"><stop offset="23.333333333333336%" stop-color="#27272b" stop-opacity="1"></stop><stop offset="76.66666666666666%" stop-color="#27272b" stop-opacity="1"></stop></linearGradient></defs><defs><linearGradient id="grad2_0" x1="0%" y1="0%" x2="75%" y2="100%"><stop offset="23.333333333333336%" stop-color="#27272b" stop-opacity="1"></stop><stop offset="76.66666666666666%" stop-color="#27272b" stop-opacity="1"></stop></linearGradient></defs><g transform="translate(2000, 0)"><path d="M0 875C-122 870.9 -243.9 866.8 -334.8 808.4C-425.8 750 -485.7 637.2 -546.6 546.6C-607.5 456 -669.4 387.4 -724.3 300C-779.2 212.6 -827.1 106.3 -875 0L0 0Z" fill="#6F95EB"></path></g><g transform="translate(0, 1500)"><path d="M0 -875C123.1 -872.8 246.3 -870.5 334.8 -808.4C423.4 -746.3 477.5 -624.3 530.3 -530.3C583.2 -436.3 634.7 -370.4 692 -286.6C749.2 -202.9 812.1 -101.5 875 0L0 0Z" fill="#6F95EB"></path></g></svg>