<svg id="visual" viewBox="0 0 900 600" width="900" height="600" xmlns="http://www.w3.org/2000/svg" xmlns:xlink="http://www.w3.org/1999/xlink" version="1.1"><rect x="0" y="0" width="900" height="600" fill="#27272b"></rect><path d="M270 0L393 0L393 35L496 35L496 71L407 71L407 106L468 106L468 141L553 141L553 176L409 176L409 212L536 212L536 247L676 247L676 282L448 282L448 318L574 318L574 353L361 353L361 388L589 388L589 424L282 424L282 459L302 459L302 494L594 494L594 529L494 529L494 565L353 565L353 600L0 600L0 565L0 565L0 529L0 529L0 494L0 494L0 459L0 459L0 424L0 424L0 388L0 388L0 353L0 353L0 318L0 318L0 282L0 282L0 247L0 247L0 212L0 212L0 176L0 176L0 141L0 141L0 106L0 106L0 71L0 71L0 35L0 35L0 0L0 0Z" fill="#303036"></path><path d="M384 0L606 0L606 35L345 35L345 71L440 71L440 106L623 106L623 141L456 141L456 176L232 176L232 212L445 212L445 247L592 247L592 282L649 282L649 318L609 318L609 353L557 353L557 388L404 388L404 424L227 424L227 459L501 459L501 494L650 494L650 529L609 529L609 565L471 565L471 600L0 600L0 565L0 565L0 529L0 529L0 494L0 494L0 459L0 459L0 424L0 424L0 388L0 388L0 353L0 353L0 318L0 318L0 282L0 282L0 247L0 247L0 212L0 212L0 176L0 176L0 141L0 141L0 106L0 106L0 71L0 71L0 35L0 35L0 0L0 0Z" fill="#313137"></path><path d="M315 0L520 0L520 35L506 35L506 71L353 71L353 106L230 106L230 141L206 141L206 176L281 176L281 212L364 212L364 247L277 247L277 282L204 282L204 318L473 318L473 353L406 353L406 388L188 388L188 424L231 424L231 459L468 459L468 494L323 494L323 529L393 529L393 565L489 565L489 600L0 600L0 565L0 565L0 529L0 529L0 494L0 494L0 459L0 459L0 424L0 424L0 388L0 388L0 353L0 353L0 318L0 318L0 282L0 282L0 247L0 247L0 212L0 212L0 176L0 176L0 141L0 141L0 106L0 106L0 71L0 71L0 35L0 35L0 0L0 0Z" fill="#323238"></path><path d="M464 0L508 0L508 35L291 35L291 71L210 71L210 106L338 106L338 141L257 141L257 176L380 176L380 212L461 212L461 247L459 247L459 282L237 282L237 318L366 318L366 353L352 353L352 388L431 388L431 424L242 424L242 459L442 459L442 494L349 494L349 529L442 529L442 565L400 565L400 600L0 600L0 565L0 565L0 529L0 529L0 494L0 494L0 459L0 459L0 424L0 424L0 388L0 388L0 353L0 353L0 318L0 318L0 282L0 282L0 247L0 247L0 212L0 212L0 176L0 176L0 141L0 141L0 106L0 106L0 71L0 71L0 35L0 35L0 0L0 0Z" fill="#333339"></path><path d="M235 0L198 0L198 35L448 35L448 71L280 71L280 106L429 106L429 141L383 141L383 176L362 176L362 212L316 212L316 247L450 247L450 282L365 282L365 318L166 318L166 353L181 353L181 388L262 388L262 424L412 424L412 459L386 459L386 494L389 494L389 529L153 529L153 565L458 565L458 600L0 600L0 565L0 565L0 529L0 529L0 494L0 494L0 459L0 459L0 424L0 424L0 388L0 388L0 353L0 353L0 318L0 318L0 282L0 282L0 247L0 247L0 212L0 212L0 176L0 176L0 141L0 141L0 106L0 106L0 71L0 71L0 35L0 35L0 0L0 0Z" fill="#34343a"></path><path d="M124 0L254 0L254 35L385 35L385 71L347 71L347 106L321 106L321 141L369 141L369 176L340 176L340 212L287 212L287 247L334 247L334 282L364 282L364 318L208 318L208 353L194 353L194 388L328 388L328 424L374 424L374 459L282 459L282 494L198 494L198 529L351 529L351 565L334 565L334 600L0 600L0 565L0 565L0 529L0 529L0 494L0 494L0 459L0 459L0 424L0 424L0 388L0 388L0 353L0 353L0 318L0 318L0 282L0 282L0 247L0 247L0 212L0 212L0 176L0 176L0 141L0 141L0 106L0 106L0 71L0 71L0 35L0 35L0 0L0 0Z" fill="#36363c"></path><path d="M245 0L208 0L208 35L243 35L243 71L201 71L201 106L177 106L177 141L159 141L159 176L123 176L123 212L288 212L288 247L176 247L176 282L321 282L321 318L276 318L276 353L208 353L208 388L125 388L125 424L303 424L303 459L299 459L299 494L227 494L227 529L268 529L268 565L311 565L311 600L0 600L0 565L0 565L0 529L0 529L0 494L0 494L0 459L0 459L0 424L0 424L0 388L0 388L0 353L0 353L0 318L0 318L0 282L0 282L0 247L0 247L0 212L0 212L0 176L0 176L0 141L0 141L0 106L0 106L0 71L0 71L0 35L0 35L0 0L0 0Z" fill="#37373d"></path><path d="M160 0L211 0L211 35L110 35L110 71L205 71L205 106L98 106L98 141L193 141L193 176L167 176L167 212L152 212L152 247L140 247L140 282L71 282L71 318L135 318L135 353L112 353L112 388L59 388L59 424L248 424L248 459L99 459L99 494L241 494L241 529L168 529L168 565L202 565L202 600L0 600L0 565L0 565L0 529L0 529L0 494L0 494L0 459L0 459L0 424L0 424L0 388L0 388L0 353L0 353L0 318L0 318L0 282L0 282L0 247L0 247L0 212L0 212L0 176L0 176L0 141L0 141L0 106L0 106L0 71L0 71L0 35L0 35L0 0L0 0Z" fill="#38383e"></path><path d="M176 0L35 0L35 35L57 35L57 71L182 71L182 106L35 106L35 141L167 141L167 176L98 176L98 212L165 212L165 247L109 247L109 282L158 282L158 318L189 318L189 353L151 353L151 388L106 388L106 424L115 424L115 459L85 459L85 494L170 494L170 529L195 529L195 565L162 565L162 600L0 600L0 565L0 565L0 529L0 529L0 494L0 494L0 459L0 459L0 424L0 424L0 388L0 388L0 353L0 353L0 318L0 318L0 282L0 282L0 247L0 247L0 212L0 212L0 176L0 176L0 141L0 141L0 106L0 106L0 71L0 71L0 35L0 35L0 0L0 0Z" fill="#393940"></path><path d="M120 0L55 0L55 35L79 35L79 71L124 71L124 106L76 106L76 141L82 141L82 176L10 176L10 212L80 212L80 247L110 247L110 282L96 282L96 318L45 318L45 353L58 353L58 388L43 388L43 424L73 424L73 459L22 459L22 494L46 494L46 529L49 529L49 565L78 565L78 600L0 600L0 565L0 565L0 529L0 529L0 494L0 494L0 459L0 459L0 424L0 424L0 388L0 388L0 353L0 353L0 318L0 318L0 282L0 282L0 247L0 247L0 212L0 212L0 176L0 176L0 141L0 141L0 106L0 106L0 71L0 71L0 35L0 35L0 0L0 0Z" fill="#3a3a41"></path></svg>